<?xml version="1.0" standalone="no"?>
<!DOCTYPE svg PUBLIC "-//W3C//DTD SVG 20010904//EN"
 "http://www.w3.org/TR/2001/REC-SVG-20010904/DTD/svg10.dtd">
<svg version="1.0" xmlns="http://www.w3.org/2000/svg"
 width="1024.000000pt" height="1024.000000pt" viewBox="0 0 1024.000000 1024.000000"
 preserveAspectRatio="xMidYMid meet">
<metadata>
Created by potrace 1.16, written by Peter Selinger 2001-2019
</metadata>
<g transform="translate(0.000000,1024.000000) scale(0.100000,-0.100000)"
fill="#000000" stroke="none">
<path d="M3375 8039 c-202 -31 -359 -129 -430 -268 -56 -112 -55 -61 -55
-1644 l0 -1457 -59 37 c-222 142 -346 335 -451 710 -36 128 -53 160 -94 180
-33 15 -34 16 -66 170 -48 232 -80 436 -87 554 -5 91 -3 116 16 177 34 114
130 223 234 267 32 13 36 13 53 -6 43 -48 128 -74 189 -58 162 43 197 254 57
349 -67 47 -174 37 -237 -21 -11 -10 -50 -27 -85 -38 -95 -30 -183 -86 -259
-167 -161 -169 -212 -352 -177 -628 19 -144 65 -402 97 -543 19 -85 19 -94 5
-115 -23 -32 -20 -72 14 -211 80 -329 177 -530 340 -710 109 -119 288 -245
447 -313 l61 -26 4 -416 c4 -390 5 -421 25 -479 43 -130 118 -215 221 -253 93
-35 472 -56 500 -28 9 9 12 9 12 -1 0 -22 103 -142 204 -238 273 -261 620
-443 988 -518 365 -74 713 -52 1073 66 254 84 501 216 714 383 402 314 719
780 878 1292 l28 91 88 16 c62 11 116 29 184 62 82 40 110 61 183 134 144 145
210 303 210 506 0 202 -66 361 -210 506 -138 139 -290 202 -490 203 -153 1
-273 -34 -392 -115 -308 -209 -405 -607 -230 -944 54 -103 192 -240 294 -290
l76 -37 -40 -117 c-228 -661 -709 -1169 -1318 -1391 -500 -183 -1074 -134
-1515 128 -112 66 -312 223 -323 253 -2 5 95 9 215 9 298 0 378 19 477 110 52
48 89 115 110 198 14 54 17 141 16 649 0 322 -2 588 -5 591 -3 3 -5 -258 -5
-579 0 -636 -2 -660 -57 -762 -33 -60 -101 -130 -120 -123 -8 3 -12 2 -9 -3
10 -15 -90 -51 -171 -62 -43 -5 -167 -9 -276 -7 -157 2 -197 0 -197 -10 0 -16
52 -65 152 -144 43 -34 75 -65 71 -71 -3 -6 -1 -7 6 -3 6 4 26 -3 44 -16 17
-13 73 -46 123 -73 62 -34 89 -55 87 -65 -4 -12 -3 -13 5 -1 8 11 23 9 83 -16
297 -122 701 -159 1011 -93 329 69 613 205 888 423 24 20 48 33 54 30 5 -3 6
-1 3 4 -4 6 20 34 52 62 160 139 355 399 477 638 75 147 178 420 168 446 -2 7
-24 20 -49 30 -26 11 -42 23 -38 30 3 6 1 7 -5 3 -29 -18 -175 110 -240 211
-73 115 -122 273 -122 396 0 61 19 179 29 173 3 -2 7 12 8 31 2 41 75 189 91
186 6 -2 9 4 6 11 -7 19 117 144 190 191 205 131 463 145 679 36 51 -25 92
-51 92 -58 0 -6 4 -15 9 -20 5 -5 6 -3 2 5 -27 46 73 -38 127 -107 112 -144
151 -258 152 -441 0 -90 -5 -143 -18 -190 -22 -80 -85 -207 -112 -226 -10 -8
-16 -14 -11 -14 5 0 1 -9 -9 -20 -10 -11 -22 -17 -28 -13 -5 3 -7 1 -4 -4 23
-37 -228 -206 -309 -207 -17 -1 -30 -4 -28 -8 2 -4 -17 -10 -43 -13 -97 -13
-91 -6 -147 -170 -29 -83 -69 -188 -90 -235 -88 -199 -238 -456 -259 -443 -6
3 -7 1 -3 -5 9 -15 -63 -114 -76 -105 -6 3 -8 1 -5 -4 7 -11 -15 -43 -72 -105
-18 -21 -40 -47 -48 -58 -8 -11 -20 -17 -26 -14 -7 4 -9 3 -4 -1 14 -16 -189
-204 -343 -317 -134 -98 -323 -204 -487 -272 -71 -30 -87 -32 -80 -12 4 10 1
13 -9 9 -11 -4 -12 -9 -4 -18 8 -10 -8 -19 -75 -40 -48 -15 -93 -24 -101 -21
-8 3 -13 2 -10 -2 6 -10 -106 -37 -239 -57 -136 -21 -430 -20 -571 0 -134 20
-313 64 -420 104 -158 58 -430 203 -418 223 4 6 3 8 -3 5 -19 -12 -238 156
-227 174 3 5 1 8 -5 7 -6 -2 -47 33 -91 77 -61 61 -79 84 -74 100 4 14 3 16
-4 7 -7 -10 -16 -5 -40 23 -35 39 -39 51 -19 58 6 3 -1 4 -17 4 -27 -2 -36 7
-88 83 -69 102 -172 300 -223 430 -45 116 -97 302 -120 435 -23 134 -28 145
-64 145 -38 0 -213 45 -248 63 -16 9 -70 36 -120 60 -152 75 -259 151 -368
261 -55 55 -122 134 -149 175 -62 95 -139 253 -140 290 -1 16 -4 27 -8 25 -9
-6 -35 83 -79 260 -30 124 -32 139 -19 169 18 43 17 87 -4 177 -55 237 -99
530 -99 665 0 108 3 129 30 207 17 48 46 113 64 145 43 73 164 197 185 189 8
-3 12 -1 9 4 -7 11 93 63 154 80 24 6 61 25 82 42 22 17 51 31 68 32 16 1 27
4 24 9 -10 16 73 6 115 -14 47 -23 98 -88 88 -114 -3 -8 -1 -15 4 -15 6 0 10
-14 10 -31 0 -16 -4 -28 -9 -25 -4 3 -6 -5 -4 -17 5 -26 -30 -81 -69 -110 -34
-25 -117 -34 -160 -17 -33 13 -75 49 -71 61 1 3 -3 6 -10 6 -7 0 -23 3 -37 7
-17 5 -20 4 -12 -2 11 -7 6 -12 -18 -20 -83 -30 -187 -145 -228 -254 -36 -95
-34 -189 8 -442 11 -66 18 -128 14 -138 -3 -10 -1 -18 4 -18 5 0 23 -71 41
-159 33 -158 33 -158 67 -174 43 -21 52 -41 109 -230 26 -87 62 -191 80 -230
18 -39 31 -75 29 -79 -3 -5 -1 -8 4 -8 6 0 21 -19 35 -42 14 -24 46 -70 71
-102 25 -32 43 -63 39 -69 -3 -6 -1 -7 6 -3 7 5 32 -11 64 -41 56 -52 143
-111 173 -118 11 -2 44 -15 74 -29 30 -14 96 -37 145 -52 83 -26 103 -28 270
-28 130 0 197 4 240 15 l60 15 2 -101 c2 -59 9 -119 18 -144 8 -24 12 -48 8
-54 -3 -5 -1 -7 4 -4 6 4 16 0 24 -9 26 -32 48 -36 99 -19 27 9 55 13 61 9 8
-5 9 -3 4 6 -6 10 -4 12 9 7 9 -4 15 -3 12 2 -3 5 9 15 27 22 78 32 246 156
339 251 l96 98 114 2 113 2 -115 6 c-68 4 33 7 250 7 382 1 503 10 716 53 299
60 603 207 847 409 349 289 540 750 541 1301 0 224 -25 379 -89 560 -129 364
-401 651 -795 838 -240 115 -440 166 -790 203 -132 14 -1710 21 -1795 8z
m1531 -909 c318 -28 540 -157 642 -372 67 -141 77 -190 76 -378 0 -150 -3
-173 -28 -255 -39 -129 -80 -199 -167 -286 -62 -63 -93 -85 -170 -122 -137
-66 -239 -88 -521 -113 l-68 -6 -11 -38 c-10 -32 -9 -42 5 -61 9 -13 16 -42
16 -64 0 -44 -49 -226 -100 -370 -91 -255 -250 -481 -442 -625 -100 -75 -148
-104 -261 -152 -90 -39 -90 -39 -116 -21 -48 35 -65 87 -69 213 l-4 115 77 39
c144 73 252 173 349 323 65 101 100 183 158 373 55 180 80 225 138 247 l37 15
36 186 c66 336 80 439 81 582 1 128 0 138 -27 195 -31 66 -64 105 -116 138
-31 19 -50 21 -185 22 -166 1 -201 10 -257 72 -113 122 -16 323 170 352 60 10
615 3 757 -9z"/>
<path d="M7369 5294 c-22 -24 -24 -33 -24 -135 l0 -109 -118 0 c-112 0 -119
-1 -142 -25 -24 -23 -25 -30 -25 -143 0 -157 -2 -156 164 -160 l121 -4 -2 -86
c-5 -158 18 -182 172 -182 97 0 97 0 131 34 l34 34 0 101 0 101 104 0 c89 0
107 3 130 21 25 20 26 23 26 140 0 114 -1 121 -25 144 -23 23 -31 25 -132 25
l-108 0 0 111 c0 109 0 111 -28 135 -26 22 -36 24 -141 24 -108 0 -113 -1
-137 -26z m268 -6 c21 -20 23 -29 23 -135 l0 -113 109 0 c94 0 112 -3 135 -21
25 -20 26 -23 26 -133 0 -148 1 -147 -155 -154 l-115 -5 0 -103 c0 -119 -3
-130 -41 -149 -38 -20 -180 -20 -218 0 -38 19 -41 30 -41 153 l0 107 -127 1
c-163 1 -163 1 -163 151 0 97 2 106 25 128 23 24 30 25 145 25 l120 0 0 112
c0 101 2 114 22 135 20 21 30 23 127 23 94 0 107 -2 128 -22z"/>
<path d="M3695 4224 c-27 -7 -80 -17 -117 -20 -66 -7 -68 -8 -68 -35 0 -47 75
-328 115 -429 39 -98 131 -290 140 -290 3 0 5 178 5 395 0 310 -3 395 -12 394
-7 0 -35 -7 -63 -15z"/>
</g>
</svg>
