<?xml version="1.0" encoding="UTF-8"?>
<svg xmlns="http://www.w3.org/2000/svg" xmlns:xlink="http://www.w3.org/1999/xlink" width="2500" height="2500" viewBox="0 0 2500 2500">
<path fill-rule="evenodd" fill="rgb(71.484375%, 83.59375%, 93.359375%)" fill-opacity="1" d="M 569.113281 2068.835938 C 463.21875 2054.390625 357.019531 2016.089844 286.117188 1931.589844 C 68.015625 1671.667969 493.003906 1537.800781 477.710938 1329.011719 C 474.386719 1283.589844 449.882812 1243.488281 435 1201.460938 C 387.390625 1067.019531 342.171875 918.648438 399.363281 778.570312 C 462.628906 623.609375 663.648438 652.558594 786.832031 578.058594 C 850.597656 539.488281 881.960938 482.511719 930.898438 428.921875 C 1020.488281 330.808594 1165.800781 247.121094 1301.621094 250.078125 C 1476.101562 253.871094 1444.738281 412.78125 1535.488281 491.308594 C 1597.929688 545.328125 1709 529.789062 1785.851562 540.921875 C 1898.699219 557.261719 2039.148438 642.53125 2103.859375 738.230469 C 2223.5 915.171875 2041.648438 1053.871094 2111.828125 1216.261719 C 2144.589844 1292.070312 2213.761719 1346.289062 2245.238281 1424.210938 C 2329.480469 1632.808594 2229.578125 1923.238281 2097.140625 2093.335938 L 569.113281 2068.835938 "/>
<path fill-rule="evenodd" fill="rgb(82.421875%, 91.40625%, 98.4375%)" fill-opacity="1" d="M 1330.378906 1876.433594 C 1841.410156 1876.433594 2256.300781 1960.128906 2256.300781 2063.214844 C 2256.300781 2166.304688 1841.410156 2250 1330.378906 2250 C 819.351562 2250 404.460938 2166.304688 404.460938 2063.214844 C 404.460938 1960.128906 819.351562 1876.433594 1330.378906 1876.433594 "/>
<path fill-rule="evenodd" fill="rgb(81.25%, 58.006287%, 34.49707%)" fill-opacity="1" d="M 1726.988281 1617.488281 L 1651.660156 1617.488281 L 1662.71875 2055.394531 L 1697 2055.394531 L 1726.988281 1617.488281 "/>
<path fill-rule="evenodd" fill="rgb(81.25%, 58.006287%, 34.49707%)" fill-opacity="1" d="M 1585.730469 1561.414062 L 1510.390625 1561.414062 L 1521.460938 1999.320312 L 1555.738281 1999.320312 L 1585.730469 1561.414062 "/>
<path fill-rule="evenodd" fill="rgb(81.25%, 58.006287%, 34.49707%)" fill-opacity="1" d="M 1324.191406 1617.488281 L 1399.53125 1617.488281 L 1388.460938 2055.394531 L 1354.179688 2055.394531 L 1324.191406 1617.488281 "/>
<path fill-rule="evenodd" fill="rgb(13.696289%, 45.506287%, 65.039062%)" fill-opacity="1" d="M 1319.910156 1526.824219 C 1320.28125 1488.238281 1412.109375 1456.96875 1525.160156 1456.96875 C 1638.449219 1456.96875 1730.421875 1488.371094 1730.421875 1527.050781 L 1730.421875 1627.453125 C 1730.421875 1666.132812 1638.449219 1697.535156 1525.160156 1697.535156 C 1411.878906 1697.535156 1319.910156 1666.132812 1319.910156 1627.453125 L 1319.910156 1526.824219 "/>
<path fill-rule="evenodd" fill="rgb(0%, 0%, 0%)" fill-opacity="1" d="M 1183.558594 1974.269531 C 1183.558594 1974.269531 1102.179688 2015.296875 1084.320312 2029.613281 C 1077.121094 2035.386719 1071.410156 2056.464844 1079.878906 2060.136719 C 1097 2067.566406 1160.519531 2074.449219 1194.859375 2074.316406 C 1226.210938 2074.191406 1272.460938 2070.871094 1286.738281 2054.1875 C 1301.011719 2037.503906 1280.5 1974.199219 1280.5 1974.199219 L 1183.558594 1974.269531 "/>
<path fill-rule="evenodd" fill="rgb(14.501953%, 16.088867%, 19.993591%)" fill-opacity="1" d="M 1667.328125 1356.238281 C 1667.328125 1356.238281 1694.808594 1465.441406 1663.871094 1503.589844 C 1589.398438 1595.390625 1370.671875 1593.949219 1306.339844 1660.035156 C 1291.140625 1675.640625 1282.941406 1974.226562 1282.941406 1974.226562 C 1244.308594 1983.253906 1209.039062 1982.886719 1176.761719 1974.226562 C 1176.761719 1974.226562 1107.570312 1651.296875 1151.191406 1552.128906 C 1194.820312 1452.960938 1395.109375 1410.488281 1444.578125 1378.78125 C 1449.421875 1375.679688 1448.050781 1361.878906 1448.050781 1361.878906 L 1667.328125 1356.238281 "/>
<path fill-rule="evenodd" fill="rgb(26.708984%, 21.604919%, 16.50238%)" fill-opacity="1" d="M 1461.921875 671.519531 C 1450.011719 659.109375 1446.050781 643.589844 1450.109375 632.769531 C 1450.109375 632.769531 1402.421875 579.21875 1467.550781 542.378906 C 1551.378906 494.96875 1620.371094 557.359375 1624.859375 567.949219 C 1652.78125 571.699219 1684.601562 590.890625 1695.179688 626.230469 C 1711.128906 679.519531 1661.449219 766.160156 1618.359375 780.730469 L 1509.589844 766.429688 L 1461.921875 671.519531 "/>
<path fill-rule="evenodd" fill="rgb(0%, 0%, 0%)" fill-opacity="1" d="M 961.808594 1960.359375 C 961.808594 1960.359375 1043.859375 2012.796875 1060.621094 2028.398438 C 1067.378906 2034.6875 1071.5 2056.128906 1062.789062 2059.167969 C 1045.160156 2065.308594 981.3125 2067.472656 947.074219 2064.800781 C 915.816406 2062.359375 869.9375 2055.628906 856.933594 2037.933594 C 843.933594 2020.238281 869.066406 1958.625 869.066406 1958.625 L 961.808594 1960.359375 "/>
<path fill-rule="evenodd" fill="rgb(0%, 0%, 0%)" fill-opacity="1" d="M 750.917969 1964.613281 C 750.917969 1964.613281 832.96875 2017.046875 849.726562 2032.648438 C 856.484375 2038.941406 860.613281 2060.382812 851.894531 2063.417969 C 834.269531 2069.558594 770.421875 2071.726562 736.183594 2069.054688 C 704.925781 2066.613281 659.046875 2059.878906 646.042969 2042.183594 C 633.042969 2024.488281 658.179688 1962.878906 658.179688 1962.878906 L 750.917969 1964.613281 "/>
<path fill-rule="evenodd" fill="rgb(14.501953%, 16.088867%, 19.993591%)" fill-opacity="1" d="M 656.285156 1199.359375 C 635.902344 1236.179688 689.179688 1478.039062 700.054688 1596.765625 C 711.332031 1719.882812 653.253906 1964.691406 653.253906 1964.691406 C 689.183594 1972.140625 722.574219 1978.195312 757.691406 1969.460938 C 757.691406 1969.460938 810.78125 1816.847656 835.699219 1735.007812 C 855.867188 1806.570312 859.796875 1884.921875 863.433594 1963.394531 C 899.136719 1973.003906 933.808594 1972.753906 967.441406 1962.527344 C 967.441406 1962.527344 1001.851562 1707.285156 1006.351562 1631.488281 C 1013.210938 1515.925781 996.046875 1266.96875 996.046875 1266.96875 L 1003.410156 1159.488281 L 694.421875 1090.160156 L 656.285156 1199.359375 "/>
<path fill-rule="evenodd" fill="rgb(40.405273%, 74.804688%, 63.084412%)" fill-opacity="1" d="M 1067.121094 688.859375 L 1085.75 733.058594 L 986.511719 1190.699219 C 948.046875 1190.601562 911.148438 1181.578125 877.738281 1167.289062 L 995.613281 660.261719 L 1067.121094 688.859375 "/>
<path fill-rule="evenodd" fill="rgb(26.708984%, 21.604919%, 16.50238%)" fill-opacity="1" d="M 1131.710938 622.191406 C 1137.050781 626.480469 1142.808594 627.75 1149.589844 628.019531 C 1175.679688 629.070312 1198.820312 607.230469 1201.910156 583.429688 C 1204.261719 565.269531 1198.050781 548.039062 1199.25 530.210938 C 1200.671875 509.328125 1214.128906 490.730469 1212.789062 469.511719 C 1211.460938 448.398438 1199.929688 447.03125 1191.339844 431.191406 C 1185.328125 420.109375 1180.230469 399.519531 1173.949219 388.839844 C 1163.179688 370.53125 1127.671875 357.671875 1107.78125 354.488281 C 1098.570312 353.019531 1087.921875 351.699219 1078.878906 354.730469 C 1069.871094 357.75 1056.96875 360.589844 1047.378906 361.78125 C 1028.761719 364.078125 1006.691406 358.808594 989.34375 367.808594 C 976.40625 374.519531 963.949219 384.699219 960.09375 399.410156 C 958.019531 407.308594 956.792969 429.789062 951.191406 435.878906 C 946.089844 441.421875 923.3125 452.058594 915.808594 455.890625 C 905.066406 461.378906 896.554688 472.640625 890.558594 482.75 C 883.648438 494.398438 880.011719 506.789062 881.867188 520.398438 C 882.40625 524.359375 884.714844 529.070312 884.296875 533.101562 C 883.578125 540.03125 877.164062 544.121094 873.847656 549.710938 C 869.277344 557.398438 868.117188 569.210938 869.871094 577.929688 C 873.808594 597.519531 886.386719 614.550781 905.222656 622.210938 C 911.175781 624.628906 918.820312 623.230469 924.292969 625.761719 C 928.570312 627.738281 940.488281 633 943.9375 635.980469 C 950.828125 641.929688 960.140625 645.410156 968.808594 647.890625 C 999.253906 656.621094 1032.601562 647.640625 1062.761719 642.800781 C 1081.980469 639.710938 1101.25 638.378906 1120.601562 636.789062 L 1131.710938 622.191406 "/>
<path fill-rule="evenodd" fill="rgb(89.84375%, 63.084412%, 45.506287%)" fill-opacity="1" d="M 1277.738281 1176.398438 C 1277.738281 1176.398438 1308.628906 1188.230469 1328.871094 1182.898438 C 1355.898438 1175.769531 1378.269531 1140.96875 1397.78125 1123.960938 C 1413.359375 1110.378906 1428.398438 1100.628906 1434.621094 1089.71875 C 1440.378906 1079.601562 1440.960938 1059.710938 1430.28125 1055.050781 C 1418.511719 1049.921875 1397.859375 1051.191406 1368.738281 1062.421875 C 1341.761719 1072.828125 1288.140625 1104.019531 1288.140625 1104.019531 L 1277.738281 1176.398438 "/>
<path fill-rule="evenodd" fill="rgb(27.098083%, 48.608398%, 73.242188%)" fill-opacity="1" d="M 1613.160156 852.238281 C 1683.859375 886.441406 1687.320312 1170.230469 1672.53125 1357.539062 C 1597.269531 1385.789062 1507.601562 1385.46875 1442.851562 1362.738281 C 1441.199219 1151.589844 1379.441406 932.058594 1541.660156 858.308594 L 1613.160156 852.238281 "/>
<path fill-rule="evenodd" fill="rgb(14.501953%, 16.088867%, 19.993591%)" fill-opacity="1" d="M 1145.210938 725.511719 C 1160.050781 706.421875 1166.789062 676.011719 1168.988281 645.238281 C 1172.199219 600.109375 1165.910156 554.351562 1163.570312 544.589844 C 1162.851562 541.589844 1159.828125 539.730469 1156.820312 540.449219 C 1153.808594 541.171875 1151.960938 544.199219 1152.679688 547.199219 C 1154.941406 556.628906 1160.921875 600.839844 1157.808594 644.441406 C 1155.789062 672.828125 1150.058594 701.019531 1136.371094 718.628906 C 1134.46875 721.078125 1134.910156 724.589844 1137.351562 726.488281 C 1139.789062 728.390625 1143.308594 727.949219 1145.210938 725.511719 "/>
<path fill-rule="evenodd" fill="rgb(93.75%, 96.09375%, 96.09375%)" fill-opacity="1" d="M 1065.390625 673.691406 C 1065.390625 673.691406 1126.851562 755.660156 1124.761719 817.140625 C 1121.351562 917.019531 1057.898438 1305.050781 1064.089844 1309.871094 C 1023.160156 1310.75 987.792969 1294.800781 952.707031 1270.441406 C 952.707031 1270.441406 1055.800781 845.628906 1071.449219 749.089844 C 1076.949219 715.199219 1052.261719 680.949219 1051.078125 688.421875 L 1055.851562 671.519531 L 1065.390625 673.691406 "/>
<path fill-rule="evenodd" fill="rgb(89.84375%, 63.084412%, 45.506287%)" fill-opacity="1" d="M 1007.828125 502.191406 C 1015.539062 505.691406 1025.449219 501.390625 1034.769531 497.011719 C 1050.359375 489.679688 1053.011719 478.96875 1056.351562 477.449219 C 1059.210938 476.140625 1070.808594 484.671875 1087.738281 483.828125 C 1104.570312 483 1121.519531 473.238281 1123.808594 474.359375 C 1127.21875 476.03125 1130.179688 482.851562 1138.300781 492.441406 C 1143.398438 498.449219 1152.011719 504.449219 1160.339844 507.039062 C 1160.339844 507.039062 1163.558594 550.941406 1159.339844 574.511719 C 1151.628906 617.53125 1130.808594 652.710938 1098.039062 666.398438 C 1084.351562 672.121094 1078.660156 682.039062 1060.921875 680.351562 C 1050 679.308594 1036.359375 665.199219 1027.011719 659.539062 C 995.4375 640.421875 987.316406 599.429688 991.980469 555.898438 C 989.933594 555.410156 987.898438 554.71875 985.902344 553.808594 C 970.621094 546.820312 963.4375 529.71875 969.871094 515.640625 C 976.113281 501.988281 992.886719 496.160156 1007.828125 502.191406 "/>
<path fill-rule="evenodd" fill="rgb(14.501953%, 16.088867%, 19.993591%)" fill-opacity="1" d="M 1084.160156 747.910156 C 1084.160156 747.921875 1084.160156 747.921875 1084.160156 747.929688 C 1084.160156 747.929688 1084.460938 749.128906 1085.101562 751.359375 C 1090.769531 771.039062 1124.070312 871.980469 1222.789062 922.621094 C 1269.691406 946.671875 1331.378906 959.011719 1411.960938 944.738281 C 1415.660156 944.078125 1418.128906 940.550781 1417.46875 936.859375 C 1416.820312 933.160156 1413.289062 930.699219 1409.589844 931.351562 C 1332.679688 944.96875 1273.761719 933.480469 1228.988281 910.519531 C 1125.328125 857.351562 1097.648438 745.839844 1097.378906 744.75 C 1096.511719 741.101562 1092.839844 738.851562 1089.191406 739.71875 C 1085.539062 740.589844 1083.289062 744.269531 1084.160156 747.910156 "/>
<path fill-rule="evenodd" fill="rgb(89.84375%, 63.084412%, 45.506287%)" fill-opacity="1" d="M 1302.441406 1029.480469 C 1302.441406 1029.480469 1322.730469 1033.140625 1333.210938 1029.050781 C 1342.488281 1025.429688 1347.941406 1012.148438 1347.941406 1012.148438 C 1347.941406 1012.148438 1427.121094 984.449219 1420.75 964.480469 C 1417.691406 954.898438 1367.441406 965.351562 1367.441406 965.351562 C 1367.441406 965.351562 1375.050781 940.71875 1383.480469 931.539062 C 1394.019531 920.058594 1432.460938 907.039062 1432.011719 895.570312 C 1431.25 876.070312 1388.058594 880.871094 1364.839844 892.539062 C 1342.960938 903.539062 1299.398438 951.039062 1299.398438 951.039062 L 1302.441406 1029.480469 "/>
<path fill-rule="evenodd" fill="rgb(89.84375%, 63.084412%, 45.506287%)" fill-opacity="1" d="M 1004.28125 618.648438 L 989.976562 639.890625 C 1031.351562 770.390625 1064.429688 735.238281 1059.75 697.089844 C 1059.148438 692.148438 1055.421875 686.691406 1055.421875 686.691406 L 1063.21875 665.890625 L 1004.28125 618.648438 "/>
<path fill-rule="evenodd" fill="rgb(93.75%, 96.09375%, 96.09375%)" fill-opacity="1" d="M 989.976562 639.890625 C 989.976562 639.890625 896.820312 623.730469 854.769531 659.820312 C 756.53125 744.140625 598.230469 1201.761719 613.816406 1201.960938 C 709.316406 1254.929688 801.503906 1273.398438 891.171875 1265.671875 C 927.207031 1086.421875 1003.851562 852.53125 1020.320312 748.230469 C 1025.398438 716 989.976562 639.890625 989.976562 639.890625 "/>
<path fill-rule="evenodd" fill="rgb(93.75%, 96.09375%, 96.09375%)" fill-opacity="1" d="M 966.144531 698.390625 C 966.144531 698.390625 1040.390625 850.839844 1083.589844 877.808594 C 1139.539062 912.738281 1304.171875 938.480469 1304.171875 938.480469 C 1314.011719 972.628906 1315.871094 1007.96875 1305.46875 1044.21875 C 1305.46875 1044.21875 1088.640625 1060.691406 1012.078125 1017.351562 C 935.519531 974.011719 839.601562 783.328125 839.601562 783.328125 L 966.144531 698.390625 "/>
<path fill-rule="evenodd" fill="rgb(93.75%, 96.09375%, 96.09375%)" fill-opacity="1" d="M 1093.121094 1007.378906 L 1292.039062 1097.519531 C 1298.019531 1127.710938 1290.691406 1159.28125 1276.441406 1191.558594 C 1200.660156 1177.238281 1131.351562 1159.75 1068.421875 1139.128906 L 1093.121094 1007.378906 "/>
<path fill-rule="evenodd" fill="rgb(92.1875%, 71.875%, 57.617188%)" fill-opacity="1" d="M 1455.070312 694.03125 L 1459.210938 634.070312 C 1483.859375 637.941406 1509.039062 633.441406 1534.449219 625.320312 C 1538.179688 640.050781 1549.179688 649.53125 1567.878906 653.480469 C 1563.628906 669.671875 1568.121094 682.488281 1581.628906 691.828125 C 1596.558594 691.691406 1610.128906 701.441406 1613.871094 716.191406 C 1618.28125 733.578125 1607.371094 751.371094 1589.519531 755.898438 C 1584.511719 757.171875 1579.488281 757.261719 1574.761719 756.359375 L 1570.789062 786.691406 C 1566.988281 822.429688 1534.929688 848.308594 1499.191406 844.511719 C 1463.460938 840.699219 1437.578125 808.648438 1441.378906 772.910156 L 1444.589844 749.699219 L 1433.53125 744.46875 C 1429.179688 742.421875 1426.109375 738.378906 1425.28125 733.648438 C 1424.460938 728.910156 1425.980469 724.070312 1429.371094 720.671875 L 1455.070312 694.03125 "/>
<path fill-rule="evenodd" fill="rgb(92.1875%, 71.875%, 57.617188%)" fill-opacity="1" d="M 1618.359375 780.730469 C 1597.328125 774.839844 1582.570312 763.070312 1572.960938 746.488281 L 1534.289062 779 L 1532.988281 861.769531 C 1450.628906 922.351562 1543.050781 930.28125 1617.058594 863.941406 L 1618.359375 780.730469 "/>
<path fill-rule="evenodd" fill="rgb(92.1875%, 71.875%, 57.617188%)" fill-opacity="1" d="M 1633.53125 1157.328125 C 1633.53125 1157.328125 1644.070312 1226.609375 1639.601562 1260.898438 C 1632.230469 1317.378906 1589.328125 1496.21875 1589.328125 1496.21875 C 1589.328125 1496.21875 1595.800781 1517.945312 1591.488281 1534.359375 C 1588.988281 1543.902344 1575.839844 1561.175781 1564.101562 1579.269531 C 1545.378906 1608.117188 1522.738281 1637.300781 1514.351562 1631 C 1511.351562 1628.742188 1511.75 1622.332031 1511.75 1622.332031 C 1511.75 1622.332031 1502.480469 1636.878906 1496.589844 1635.335938 C 1489.738281 1633.535156 1489.648438 1627.964844 1489.648438 1627.964844 C 1489.648438 1627.964844 1481.519531 1632.808594 1477.519531 1630.566406 C 1473.019531 1628.050781 1475.351562 1619.300781 1475.351562 1619.300781 C 1475.351562 1619.300781 1466.941406 1622.082031 1464.519531 1619.300781 C 1452.109375 1605.050781 1485.5 1545.550781 1496.148438 1531.757812 C 1502.179688 1523.953125 1475.171875 1536.710938 1467.550781 1527.425781 C 1458 1515.785156 1504.488281 1484.109375 1526.488281 1477.589844 C 1526.488281 1477.589844 1542.589844 1318.46875 1542.960938 1266.101562 C 1543.21875 1228.03125 1528.660156 1163.390625 1528.660156 1163.390625 C 1563.769531 1165.730469 1598.71875 1163.378906 1633.53125 1157.328125 "/>
<path fill-rule="evenodd" fill="rgb(14.501953%, 16.088867%, 19.993591%)" fill-opacity="1" d="M 984.820312 529.511719 C 984.390625 531.871094 974.066406 590.058594 986.070312 645.328125 C 994.441406 683.890625 1009.820312 721.449219 1036.601562 740.210938 C 1049.769531 749.429688 1078.660156 751.210938 1097.910156 748.648438 C 1117.300781 746.078125 1135.628906 737.828125 1145.210938 725.511719 C 1147.109375 723.070312 1146.671875 719.550781 1144.230469 717.648438 C 1141.789062 715.75 1138.269531 716.191406 1136.371094 718.628906 C 1128.328125 728.980469 1112.710938 735.390625 1096.441406 737.550781 C 1086.539062 738.859375 1073.25 739.058594 1061.769531 737.289062 C 1054.230469 736.140625 1047.46875 734.148438 1043.03125 731.039062 C 1018.269531 713.699219 1004.761719 678.601562 997.015625 642.949219 C 985.097656 588.070312 995.988281 530.191406 995.988281 530.191406 C 996 530.140625 996.007812 530.089844 996.007812 530.039062 C 996.132812 526.949219 993.722656 524.339844 990.636719 524.21875 C 987.574219 524.089844 984.984375 526.460938 984.820312 529.511719 "/>
<path fill-rule="evenodd" fill="rgb(69.726562%, 71.484375%, 71.484375%)" fill-opacity="1" d="M 1425.480469 902.441406 C 1427.140625 901.769531 1429.03125 901.96875 1430.511719 902.980469 C 1431.988281 903.980469 1432.878906 905.660156 1432.878906 907.449219 C 1432.878906 922.019531 1432.878906 952.769531 1432.878906 967.339844 C 1432.878906 969.128906 1431.988281 970.808594 1430.511719 971.808594 C 1429.03125 972.808594 1427.140625 973.019531 1425.480469 972.351562 C 1421.519531 970.769531 1416.839844 968.890625 1413.738281 967.648438 C 1411.691406 966.828125 1410.339844 964.851562 1410.339844 962.640625 C 1410.339844 952.238281 1410.339844 922.550781 1410.339844 912.148438 C 1410.339844 909.941406 1411.691406 907.960938 1413.738281 907.128906 C 1416.839844 905.898438 1421.519531 904.019531 1425.480469 902.441406 "/>
<path fill-rule="evenodd" fill="rgb(14.501953%, 16.088867%, 19.993591%)" fill-opacity="1" d="M 1070.890625 528.230469 C 1075.261719 528.941406 1077.988281 534.5 1076.980469 540.640625 C 1075.980469 546.78125 1071.621094 551.179688 1067.25 550.46875 C 1062.878906 549.75 1060.148438 544.191406 1061.160156 538.050781 C 1062.160156 531.910156 1066.519531 527.511719 1070.890625 528.230469 "/>
<path fill-rule="evenodd" fill="rgb(14.501953%, 16.088867%, 19.993591%)" fill-opacity="1" d="M 1121.101562 537.679688 C 1125.46875 538.398438 1128.199219 543.960938 1127.199219 550.101562 C 1126.191406 556.238281 1121.828125 560.640625 1117.46875 559.921875 C 1113.101562 559.210938 1110.371094 553.648438 1111.371094 547.511719 C 1112.378906 541.371094 1116.738281 536.96875 1121.101562 537.679688 "/>
<path fill-rule="evenodd" fill="rgb(100%, 100%, 100%)" fill-opacity="1" d="M 1046.179688 603.75 C 1045.269531 603.371094 1044.230469 603.390625 1043.339844 603.828125 C 1042.449219 604.261719 1041.78125 605.050781 1041.511719 606 C 1037.949219 619.238281 1044.148438 633.179688 1056.53125 638.359375 C 1068.898438 643.539062 1083.179688 638.179688 1090.078125 626.328125 C 1090.570312 625.480469 1090.671875 624.460938 1090.351562 623.53125 C 1090.03125 622.601562 1089.328125 621.851562 1088.429688 621.46875 C 1081.71875 618.628906 1067.308594 612.601562 1067.308594 612.601562 C 1067.308594 612.601562 1052.898438 606.558594 1046.179688 603.75 "/>
<path fill-rule="evenodd" fill="rgb(14.501953%, 16.088867%, 19.993591%)" fill-opacity="1" d="M 1480.960938 668.171875 C 1486.179688 668.851562 1489.648438 675.269531 1488.710938 682.511719 C 1487.761719 689.738281 1482.761719 695.058594 1477.539062 694.378906 C 1472.320312 693.699219 1468.851562 687.269531 1469.800781 680.039062 C 1470.738281 672.808594 1475.738281 667.488281 1480.960938 668.171875 "/>
<path fill-rule="evenodd" fill="rgb(100%, 100%, 100%)" fill-opacity="1" d="M 1464.371094 771.628906 C 1463 771.628906 1461.691406 772.199219 1460.75 773.210938 C 1459.808594 774.21875 1459.339844 775.570312 1459.441406 776.941406 C 1460.179688 789.128906 1464.039062 795.03125 1477.949219 795.03125 C 1491.128906 795.03125 1509.160156 789.738281 1514.78125 778.820312 C 1515.558594 777.289062 1515.488281 775.46875 1514.589844 774.011719 C 1513.699219 772.539062 1512.109375 771.648438 1510.390625 771.648438 C 1501.988281 771.628906 1487.921875 771.628906 1487.921875 771.628906 C 1487.921875 771.628906 1472.578125 771.628906 1464.371094 771.628906 "/>
<path fill-rule="evenodd" fill="rgb(26.708984%, 21.604919%, 16.50238%)" fill-opacity="1" d="M 1085.488281 508.800781 C 1077.671875 492.398438 1053.101562 490.609375 1038.269531 512.078125 C 1036.851562 514.128906 1037.371094 516.941406 1039.421875 518.359375 C 1041.46875 519.769531 1044.28125 519.261719 1045.699219 517.210938 C 1055.710938 502.710938 1072.058594 501.609375 1077.339844 512.691406 C 1078.421875 514.941406 1081.109375 515.890625 1083.359375 514.820312 C 1085.609375 513.75 1086.570312 511.050781 1085.488281 508.800781 "/>
<path fill-rule="evenodd" fill="rgb(26.708984%, 21.604919%, 16.50238%)" fill-opacity="1" d="M 1113.28125 520.011719 C 1122.050781 512.421875 1134.058594 519.648438 1135.621094 535.980469 C 1135.859375 538.460938 1138.058594 540.28125 1140.539062 540.039062 C 1143.03125 539.808594 1144.839844 537.601562 1144.609375 535.121094 C 1143.429688 522.808594 1137.738281 514.539062 1130.949219 510.628906 C 1123.53125 506.351562 1114.609375 506.921875 1107.371094 513.191406 C 1105.488281 514.820312 1105.28125 517.671875 1106.910156 519.550781 C 1108.539062 521.441406 1111.390625 521.640625 1113.28125 520.011719 "/>
<path fill-rule="evenodd" fill="rgb(76.5625%, 37.988281%, 14.109802%)" fill-opacity="1" d="M 1092.601562 549.121094 C 1090.390625 561.53125 1097.28125 573.46875 1102.21875 583.640625 C 1103.648438 586.558594 1104.878906 589.320312 1105.5 591.890625 C 1105.980469 593.839844 1106.109375 595.660156 1105.410156 597.28125 C 1103.019531 602.808594 1098.191406 603.070312 1094.039062 602.160156 C 1088.988281 601.058594 1084.679688 598.28125 1084.679688 598.28125 C 1083 597.199219 1080.761719 597.691406 1079.679688 599.359375 C 1078.601562 601.039062 1079.089844 603.28125 1080.769531 604.351562 L 1092.5 609.21875 C 1099.71875 610.800781 1107.878906 609.761719 1112.039062 600.148438 C 1114.390625 594.699219 1112.359375 587.960938 1108.71875 580.480469 C 1104.378906 571.558594 1097.78125 561.261719 1099.710938 550.378906 C 1100.058594 548.421875 1098.75 546.539062 1096.789062 546.191406 C 1094.820312 545.839844 1092.949219 547.148438 1092.601562 549.121094 "/>
<path fill-rule="evenodd" fill="rgb(76.5625%, 37.988281%, 14.109802%)" fill-opacity="1" d="M 987.988281 519.640625 C 996.226562 523.578125 1001.03125 531.648438 996.882812 538.300781 C 995.828125 540 996.34375 542.21875 998.035156 543.28125 C 999.726562 544.328125 1001.960938 543.808594 1003.011719 542.121094 C 1009.300781 532.03125 1003.601562 519.101562 991.105469 513.121094 C 989.308594 512.261719 987.148438 513.019531 986.289062 514.820312 C 985.425781 516.621094 986.1875 518.78125 987.988281 519.640625 "/>
<path fill-rule="evenodd" fill="rgb(69.726562%, 71.484375%, 71.484375%)" fill-opacity="1" d="M 961.519531 698.941406 C 961.519531 698.941406 1015.078125 824.488281 1068.191406 871.410156 C 1084.050781 885.421875 1111.75 897.660156 1142.820312 907.808594 C 1207.589844 928.980469 1287.019531 941.320312 1301.390625 943.449219 C 1310.378906 973.671875 1309.761719 1004.769531 1302.519531 1038.648438 C 1285.589844 1039.828125 1191.410156 1045.761719 1109.921875 1037.230469 C 1071.789062 1033.238281 1036.460938 1026.128906 1013.359375 1013.730469 C 982.496094 997.179688 948.804688 958.011719 919.371094 917.078125 C 874.847656 855.160156 840.199219 789.019531 840.199219 789.019531 C 839.273438 787.261719 837.089844 786.578125 835.324219 787.5 C 833.558594 788.429688 832.878906 790.609375 833.800781 792.371094 C 833.800781 792.371094 881.300781 883.03125 936.675781 951.839844 C 960.667969 981.648438 986.175781 1007.351562 1009.941406 1020.101562 C 1033.691406 1032.839844 1069.980469 1040.308594 1109.171875 1044.410156 C 1199.679688 1053.890625 1305.75 1045.648438 1305.75 1045.648438 C 1307.328125 1045.53125 1308.648438 1044.390625 1308.988281 1042.839844 C 1317.25 1005.800781 1317.910156 971.988281 1307.621094 939.128906 C 1307.199219 937.800781 1306.058594 936.828125 1304.679688 936.628906 C 1304.679688 936.628906 1216 924.128906 1145.058594 900.949219 C 1115.078125 891.148438 1088.28125 879.511719 1072.980469 866 C 1020.699219 819.808594 968.167969 696.109375 968.167969 696.109375 C 967.386719 694.28125 965.261719 693.421875 963.429688 694.199219 C 961.59375 694.980469 960.738281 697.109375 961.519531 698.941406 "/>
<path fill-rule="evenodd" fill="rgb(69.726562%, 71.484375%, 71.484375%)" fill-opacity="1" d="M 1094.179688 1038.980469 L 1080.441406 1138.199219 C 1080.171875 1140.171875 1081.550781 1142 1083.53125 1142.269531 C 1085.5 1142.539062 1087.320312 1141.160156 1087.601562 1139.191406 L 1101.328125 1039.96875 C 1101.601562 1037.988281 1100.21875 1036.171875 1098.25 1035.890625 C 1096.269531 1035.621094 1094.449219 1037 1094.179688 1038.980469 "/>
<path fill-rule="evenodd" fill="rgb(69.726562%, 71.484375%, 71.484375%)" fill-opacity="1" d="M 880.632812 1078.78125 C 881.304688 1076.378906 879.90625 1073.890625 877.503906 1073.21875 L 769.394531 1042.910156 C 766.996094 1042.238281 764.503906 1043.640625 763.828125 1046.039062 C 763.828125 1046.039062 745.316406 1112.070312 734.410156 1150.980469 C 729.441406 1168.710938 739.78125 1187.109375 757.511719 1192.078125 C 773.664062 1196.609375 793.957031 1202.300781 810.109375 1206.820312 C 827.839844 1211.800781 846.242188 1201.449219 851.210938 1183.71875 C 862.117188 1144.820312 880.632812 1078.78125 880.632812 1078.78125 Z M 870.71875 1080.691406 C 866.425781 1096.019531 851.746094 1148.359375 842.519531 1181.289062 C 838.894531 1194.210938 825.476562 1201.761719 812.546875 1198.128906 C 796.394531 1193.601562 776.101562 1187.910156 759.949219 1183.390625 C 747.023438 1179.761719 739.476562 1166.339844 743.101562 1153.410156 L 771.304688 1052.820312 L 870.71875 1080.691406 "/>
<path fill-rule="evenodd" fill="rgb(69.726562%, 71.484375%, 71.484375%)" fill-opacity="1" d="M 1074.359375 1131.058594 L 1032.019531 1119.179688 C 1029.621094 1118.511719 1027.128906 1119.910156 1026.449219 1122.308594 C 1026.449219 1122.308594 1007.941406 1188.351562 997.03125 1227.25 C 992.058594 1244.980469 1002.410156 1263.378906 1020.140625 1268.351562 C 1032.949219 1271.949219 1038.410156 1273.480469 1052.308594 1277.371094 C 1054.699219 1278.039062 1057.199219 1276.640625 1057.871094 1274.238281 C 1058.539062 1271.839844 1057.140625 1269.351562 1054.738281 1268.679688 L 1022.570312 1259.660156 C 1009.640625 1256.039062 1002.101562 1242.609375 1005.730469 1229.691406 C 1014.949219 1196.769531 1029.628906 1144.421875 1033.929688 1129.089844 L 1071.929688 1139.75 C 1074.320312 1140.421875 1076.820312 1139.019531 1077.488281 1136.621094 C 1078.160156 1134.21875 1076.761719 1131.730469 1074.359375 1131.058594 "/>
<path fill-rule="evenodd" fill="rgb(76.5625%, 37.988281%, 14.109802%)" fill-opacity="1" d="M 1006.140625 642.570312 C 1008.890625 649.179688 1012.660156 652.980469 1016.898438 656.148438 C 1020.570312 658.898438 1024.640625 661.101562 1028.550781 664.691406 C 1034.429688 670.089844 1043.398438 680.171875 1051.28125 683.890625 C 1053.078125 684.738281 1055.230469 683.96875 1056.078125 682.160156 C 1056.929688 680.359375 1056.160156 678.210938 1054.359375 677.359375 C 1047.058594 673.910156 1038.890625 664.378906 1033.441406 659.371094 C 1030.101562 656.300781 1026.660156 654.160156 1023.410156 651.921875 C 1019.25 649.070312 1015.410156 646.058594 1012.820312 639.800781 C 1012.050781 637.960938 1009.941406 637.089844 1008.101562 637.851562 C 1006.261719 638.609375 1005.378906 640.730469 1006.140625 642.570312 "/>
<path fill-rule="evenodd" fill="rgb(0%, 0%, 0%)" fill-opacity="1" d="M 845.195312 1726.425781 C 845.195312 1726.425781 871.832031 1643.761719 874.769531 1600.863281 C 878.96875 1539.554688 870.546875 1357.769531 870.546875 1357.769531 C 870.429688 1355.28125 868.316406 1353.351562 865.828125 1353.46875 C 863.335938 1353.578125 861.410156 1355.699219 861.527344 1358.191406 C 861.527344 1358.191406 869.941406 1539.199219 865.761719 1600.246094 C 862.875 1642.414062 836.605469 1723.652344 836.605469 1723.652344 C 835.839844 1726.023438 837.140625 1728.570312 839.511719 1729.335938 C 841.886719 1730.101562 844.433594 1728.800781 845.195312 1726.425781 "/>
<path fill-rule="evenodd" fill="rgb(76.5625%, 37.988281%, 14.109802%)" fill-opacity="1" d="M 1357.890625 1005.03125 C 1364.628906 994.738281 1369.058594 983.761719 1371.421875 972.128906 C 1371.808594 970.179688 1370.550781 968.269531 1368.589844 967.871094 C 1366.640625 967.480469 1364.730469 968.738281 1364.339844 970.699219 C 1362.160156 981.429688 1358.070312 991.578125 1351.851562 1001.070312 C 1350.761719 1002.738281 1351.230469 1004.980469 1352.898438 1006.070312 C 1354.558594 1007.160156 1356.800781 1006.691406 1357.890625 1005.03125 "/>
<path fill-rule="evenodd" fill="rgb(76.5625%, 37.988281%, 14.109802%)" fill-opacity="1" d="M 1406.988281 893.78125 C 1406.988281 893.78125 1372.339844 901.378906 1360.929688 910.03125 C 1349.609375 918.609375 1336.058594 944.621094 1336.058594 944.621094 C 1335.148438 946.390625 1335.851562 948.570312 1337.621094 949.488281 C 1339.390625 950.398438 1341.570312 949.710938 1342.480469 947.929688 C 1342.480469 947.929688 1354.820312 923.71875 1365.289062 915.789062 C 1375.980469 907.679688 1408.511719 900.839844 1408.511719 900.839844 C 1410.449219 900.421875 1411.691406 898.5 1411.28125 896.550781 C 1410.859375 894.601562 1408.941406 893.359375 1406.988281 893.78125 "/>
<path fill-rule="evenodd" fill="rgb(76.5625%, 37.988281%, 14.109802%)" fill-opacity="1" d="M 1320.488281 1116.121094 C 1320.488281 1116.121094 1347.550781 1097.859375 1367.519531 1090.46875 C 1371.53125 1088.988281 1375.21875 1087.941406 1378.308594 1087.660156 C 1380.390625 1087.46875 1382.121094 1087.449219 1383.148438 1088.441406 C 1383.730469 1088.988281 1383.46875 1089.691406 1383.121094 1090.480469 C 1382.53125 1091.820312 1381.480469 1093.261719 1380.160156 1094.828125 C 1374.640625 1101.351562 1364.648438 1109.429688 1356.5 1118.238281 C 1350.640625 1124.570312 1345.730469 1131.300781 1343.628906 1138.050781 C 1337.910156 1156.410156 1318.570312 1155.878906 1318.570312 1155.878906 C 1316.578125 1155.828125 1314.921875 1157.410156 1314.859375 1159.398438 C 1314.808594 1161.390625 1316.378906 1163.050781 1318.378906 1163.109375 C 1318.378906 1163.109375 1343.179688 1163.761719 1350.519531 1140.199219 C 1352.828125 1132.808594 1359.171875 1125.609375 1365.921875 1118.890625 C 1373.191406 1111.660156 1381 1105.019531 1385.671875 1099.488281 C 1388.050781 1096.679688 1389.660156 1094.058594 1390.328125 1091.78125 C 1391.28125 1088.480469 1390.660156 1085.609375 1388.140625 1083.210938 C 1386.230469 1081.390625 1383.449219 1080.390625 1379.929688 1080.359375 C 1375.910156 1080.328125 1370.710938 1081.578125 1365.011719 1083.699219 C 1344.410156 1091.328125 1316.449219 1110.128906 1316.449219 1110.128906 C 1314.800781 1111.238281 1314.359375 1113.488281 1315.480469 1115.140625 C 1316.589844 1116.789062 1318.839844 1117.230469 1320.488281 1116.121094 "/>
<path fill-rule="evenodd" fill="rgb(19.993591%, 36.108398%, 54.881287%)" fill-opacity="1" d="M 1497.710938 1028.359375 L 1502.910156 1162.699219 C 1502.988281 1164.75 1504.429688 1166.480469 1506.421875 1166.929688 C 1557.980469 1178.601562 1607.761719 1173.25 1656.28125 1155.949219 C 1658.269531 1155.238281 1659.5 1153.25 1659.25 1151.148438 L 1641.910156 1007.710938 C 1641.609375 1005.230469 1639.359375 1003.46875 1636.890625 1003.769531 C 1634.421875 1004.070312 1632.648438 1006.320312 1632.949219 1008.789062 L 1649.851562 1148.628906 C 1605.089844 1164.039062 1559.21875 1168.898438 1511.800781 1158.859375 L 1506.730469 1028.011719 C 1506.640625 1025.519531 1504.539062 1023.578125 1502.039062 1023.671875 C 1499.558594 1023.769531 1497.609375 1025.871094 1497.710938 1028.359375 "/>
<path fill-rule="evenodd" fill="rgb(76.5625%, 47.801208%, 28.588867%)" fill-opacity="1" d="M 1513.328125 1619.453125 C 1519.550781 1605.34375 1531.058594 1581.925781 1540.160156 1570.398438 C 1541.390625 1568.835938 1541.128906 1566.558594 1539.558594 1565.328125 C 1537.988281 1564.09375 1535.71875 1564.359375 1534.488281 1565.925781 C 1525.089844 1577.828125 1513.140625 1601.96875 1506.71875 1616.542969 C 1505.910156 1618.363281 1506.738281 1620.5 1508.558594 1621.304688 C 1510.390625 1622.105469 1512.519531 1621.277344 1513.328125 1619.453125 "/>
<path fill-rule="evenodd" fill="rgb(76.5625%, 47.801208%, 28.588867%)" fill-opacity="1" d="M 1492.769531 1623.007812 C 1496.441406 1603.738281 1511.738281 1579.839844 1521.320312 1564.433594 C 1522.371094 1562.742188 1521.859375 1560.515625 1520.160156 1559.460938 C 1518.46875 1558.410156 1516.238281 1558.925781 1515.191406 1560.621094 C 1505.21875 1576.648438 1489.488281 1601.609375 1485.671875 1621.65625 C 1485.300781 1623.613281 1486.589844 1625.507812 1488.539062 1625.878906 C 1490.5 1626.253906 1492.390625 1624.96875 1492.769531 1623.007812 "/>
<path fill-rule="evenodd" fill="rgb(76.5625%, 47.801208%, 28.588867%)" fill-opacity="1" d="M 1477.570312 1616.207031 C 1482.089844 1596.554688 1496.378906 1570.558594 1505.289062 1556.195312 C 1506.339844 1554.503906 1505.820312 1552.273438 1504.121094 1551.226562 C 1502.429688 1550.175781 1500.199219 1550.695312 1499.148438 1552.390625 C 1489.921875 1567.265625 1475.210938 1594.230469 1470.53125 1614.589844 C 1470.089844 1616.53125 1471.300781 1618.472656 1473.238281 1618.917969 C 1475.191406 1619.363281 1477.128906 1618.148438 1477.570312 1616.207031 "/>
<path fill-rule="evenodd" fill="rgb(26.708984%, 21.604919%, 16.50238%)" fill-opacity="1" d="M 1473.109375 658.460938 C 1476.328125 654.789062 1481.089844 653.558594 1485.808594 654.109375 C 1493.449219 655 1501.160156 660.421875 1503.511719 668.828125 C 1504.171875 671.230469 1506.660156 672.640625 1509.058594 671.96875 C 1511.460938 671.300781 1512.871094 668.808594 1512.199219 666.410156 C 1508.828125 654.308594 1497.828125 646.421875 1486.851562 645.140625 C 1479.171875 644.25 1471.550781 646.539062 1466.320312 652.511719 C 1464.679688 654.390625 1464.871094 657.238281 1466.738281 658.878906 C 1468.621094 660.519531 1471.46875 660.339844 1473.109375 658.460938 "/>
<path fill-rule="evenodd" fill="rgb(76.5625%, 47.801208%, 28.588867%)" fill-opacity="1" d="M 1593.609375 707.808594 C 1574.371094 710.429688 1570.050781 730.679688 1578.558594 742.921875 C 1579.699219 744.558594 1581.949219 744.96875 1583.589844 743.828125 C 1585.230469 742.691406 1585.628906 740.441406 1584.488281 738.800781 C 1578.730469 730.511719 1581.539062 716.738281 1594.578125 714.96875 C 1596.558594 714.699219 1597.941406 712.878906 1597.671875 710.910156 C 1597.410156 708.929688 1595.578125 707.550781 1593.609375 707.808594 "/>
<path fill-rule="evenodd" fill="rgb(76.5625%, 47.801208%, 28.588867%)" fill-opacity="1" d="M 1540.980469 841.660156 C 1565.480469 830.589844 1580.859375 808.488281 1584.660156 783.441406 C 1584.960938 781.46875 1583.609375 779.628906 1581.640625 779.328125 C 1579.660156 779.03125 1577.820312 780.390625 1577.519531 782.359375 C 1574.078125 805.03125 1560.191406 825.058594 1538 835.078125 C 1536.191406 835.898438 1535.378906 838.039062 1536.199219 839.859375 C 1537.019531 841.671875 1539.160156 842.480469 1540.980469 841.660156 "/>
<path fill-rule="evenodd" fill="rgb(23.509216%, 55.271912%, 43.505859%)" fill-opacity="1" d="M 1023.191406 743.410156 C 1023.191406 743.410156 1030.160156 756.609375 1036.769531 765.191406 C 1040.160156 769.578125 1043.691406 772.691406 1046.238281 773.378906 C 1049.300781 774.210938 1052.859375 772.96875 1056.128906 770.210938 C 1061.71875 765.488281 1066.800781 756.488281 1066.800781 756.488281 C 1067.78125 754.75 1067.148438 752.550781 1065.421875 751.578125 C 1063.679688 750.609375 1061.46875 751.230469 1060.5 752.96875 C 1060.5 752.96875 1057.308594 758.691406 1053.351562 762.890625 C 1052.199219 764.109375 1050.988281 765.210938 1049.78125 765.898438 C 1049.191406 766.230469 1048.660156 766.558594 1048.128906 766.410156 C 1047.519531 766.25 1046.890625 765.660156 1046.140625 764.949219 C 1044.980469 763.851562 1043.75 762.410156 1042.488281 760.78125 C 1036.199219 752.609375 1029.578125 740.039062 1029.578125 740.039062 C 1028.648438 738.28125 1026.460938 737.601562 1024.699219 738.53125 C 1022.929688 739.460938 1022.261719 741.648438 1023.191406 743.410156 "/>
</svg>
